<?xml version="1.0" encoding="UTF-8" standalone="no"?>
<!DOCTYPE svg PUBLIC "-//W3C//DTD SVG 1.1//EN" "http://www.w3.org/Graphics/SVG/1.1/DTD/svg11.dtd">
<svg version="1.1" xmlns="http://www.w3.org/2000/svg" xmlns:xlink="http://www.w3.org/1999/xlink" preserveAspectRatio="xMidYMid meet" viewBox="0 0 190 190" width="190" height="190"><defs><path d="M94.53 14.92C50.12 14.92 14.12 50.92 14.12 95.33C14.12 130.85 37.16 160.99 69.11 171.63C73.12 172.37 74.6 169.88 74.6 167.76C74.6 165.84 74.52 159.51 74.49 152.79C52.12 157.65 47.4 143.3 47.4 143.3C43.74 134.01 38.47 131.54 38.47 131.54C31.18 126.55 39.02 126.65 39.02 126.65C47.1 127.21 51.35 134.94 51.35 134.94C58.52 147.23 70.16 143.67 74.75 141.62C75.47 136.42 77.55 132.87 79.85 130.87C61.99 128.83 43.22 121.94 43.22 91.13C43.22 82.35 46.36 75.18 51.5 69.55C50.67 67.52 47.92 59.34 52.28 48.27C52.28 48.27 59.03 46.11 74.4 56.51C80.81 54.73 87.69 53.83 94.53 53.8C101.36 53.83 108.24 54.73 114.67 56.51C130.02 46.11 136.76 48.27 136.76 48.27C141.14 59.34 138.38 67.52 137.55 69.55C142.7 75.18 145.82 82.35 145.82 91.13C145.82 122.01 127.01 128.81 109.11 130.8C111.99 133.3 114.56 138.19 114.56 145.69C114.56 156.45 114.47 165.11 114.47 167.76C114.47 169.9 115.91 172.41 119.99 171.62C151.92 160.97 174.93 130.84 174.93 95.33C174.93 50.92 138.93 14.92 94.53 14.92" id="c3f5yBCWcS"></path><path d="M94.53 14.92C50.12 14.92 14.12 50.92 14.12 95.33C14.12 130.85 37.16 160.99 69.11 171.63C73.12 172.37 74.6 169.88 74.6 167.76C74.6 165.84 74.52 159.51 74.49 152.79C52.12 157.65 47.4 143.3 47.4 143.3C43.74 134.01 38.47 131.54 38.47 131.54C31.18 126.55 39.02 126.65 39.02 126.65C47.1 127.21 51.35 134.94 51.35 134.94C58.52 147.23 70.16 143.67 74.75 141.62C75.47 136.42 77.55 132.87 79.85 130.87C61.99 128.83 43.22 121.94 43.22 91.13C43.22 82.35 46.36 75.18 51.5 69.55C50.67 67.52 47.92 59.34 52.28 48.27C52.28 48.27 59.03 46.11 74.4 56.51C80.81 54.73 87.69 53.83 94.53 53.8C101.36 53.83 108.24 54.73 114.67 56.51C130.02 46.11 136.76 48.27 136.76 48.27C141.14 59.34 138.38 67.52 137.55 69.55C142.7 75.18 145.82 82.35 145.82 91.13C145.82 122.01 127.01 128.81 109.11 130.8C111.99 133.3 114.56 138.19 114.56 145.69C114.56 156.45 114.47 165.11 114.47 167.76C114.47 169.9 115.91 172.41 119.99 171.62C151.92 160.97 174.93 130.84 174.93 95.33C174.93 50.92 138.93 14.92 94.53 14.92" id="g6N4QgXFrD"></path><path d="M44.57 130.37C44.39 130.77 43.77 130.89 43.19 130.61C42.61 130.35 42.28 129.81 42.47 129.41C42.65 129 43.27 128.88 43.86 129.15C44.44 129.42 44.77 129.97 44.57 130.37C44.57 130.37 44.57 130.37 44.57 130.37" id="a5rqnJgoRI"></path><path d="M44.57 130.37C44.39 130.77 43.77 130.89 43.19 130.61C42.61 130.35 42.28 129.81 42.47 129.41C42.65 129 43.27 128.88 43.86 129.15C44.44 129.42 44.77 129.97 44.57 130.37C44.57 130.37 44.57 130.37 44.57 130.37" id="bniVPbddM"></path><path d="M47.83 134C47.45 134.36 46.7 134.19 46.19 133.63C45.66 133.07 45.56 132.32 45.95 131.96C46.35 131.6 47.07 131.77 47.6 132.33C48.13 132.9 48.23 133.64 47.83 134C47.83 134 47.83 134 47.83 134" id="b1vQ7DknX1"></path><path d="M47.83 134C47.45 134.36 46.7 134.19 46.19 133.63C45.66 133.07 45.56 132.32 45.95 131.96C46.35 131.6 47.07 131.77 47.6 132.33C48.13 132.9 48.23 133.64 47.83 134C47.83 134 47.83 134 47.83 134" id="aOGKucqy"></path><path d="M51 138.63C50.51 138.97 49.7 138.65 49.2 137.94C48.71 137.22 48.71 136.37 49.21 136.02C49.71 135.68 50.51 135.99 51.01 136.7C51.5 137.42 51.5 138.28 51 138.63C51 138.63 51 138.63 51 138.63" id="a1t2QCtnZ"></path><path d="M51 138.63C50.51 138.97 49.7 138.65 49.2 137.94C48.71 137.22 48.71 136.37 49.21 136.02C49.71 135.68 50.51 135.99 51.01 136.7C51.5 137.42 51.5 138.28 51 138.63C51 138.63 51 138.63 51 138.63" id="cgdfem2Rb"></path><path d="M55.34 143.11C54.9 143.59 53.96 143.46 53.28 142.8C52.57 142.15 52.38 141.23 52.82 140.74C53.27 140.26 54.21 140.39 54.9 141.05C55.6 141.7 55.81 142.62 55.34 143.11C55.34 143.11 55.34 143.11 55.34 143.11" id="b8QOsNxQM"></path><path d="M55.34 143.11C54.9 143.59 53.96 143.46 53.28 142.8C52.57 142.15 52.38 141.23 52.82 140.74C53.27 140.26 54.21 140.39 54.9 141.05C55.6 141.7 55.81 142.62 55.34 143.11C55.34 143.11 55.34 143.11 55.34 143.11" id="afTwUgWBB"></path><path d="M61.33 145.7C61.14 146.33 60.24 146.62 59.33 146.35C58.42 146.08 57.82 145.34 58 144.7C58.19 144.07 59.1 143.77 60.02 144.06C60.93 144.33 61.52 145.06 61.33 145.7C61.33 145.7 61.33 145.7 61.33 145.7" id="d323eEJcBg"></path><path d="M61.33 145.7C61.14 146.33 60.24 146.62 59.33 146.35C58.42 146.08 57.82 145.34 58 144.7C58.19 144.07 59.1 143.77 60.02 144.06C60.93 144.33 61.52 145.06 61.33 145.7C61.33 145.7 61.33 145.7 61.33 145.7" id="a2PS6RB0cu"></path><path d="M67.91 146.19C67.94 146.85 67.17 147.4 66.21 147.41C65.25 147.43 64.47 146.9 64.46 146.24C64.46 145.57 65.21 145.03 66.18 145.01C67.13 144.99 67.91 145.53 67.91 146.19C67.91 146.19 67.91 146.19 67.91 146.19" id="hoT5rRVvi"></path><path d="M67.91 146.19C67.94 146.85 67.17 147.4 66.21 147.41C65.25 147.43 64.47 146.9 64.46 146.24C64.46 145.57 65.21 145.03 66.18 145.01C67.13 144.99 67.91 145.53 67.91 146.19C67.91 146.19 67.91 146.19 67.91 146.19" id="c4he8Idk8"></path><path d="M74.04 145.14C74.15 145.79 73.49 146.45 72.54 146.63C71.61 146.8 70.74 146.4 70.62 145.76C70.51 145.1 71.18 144.43 72.12 144.26C73.07 144.1 73.92 144.48 74.04 145.14C74.04 145.14 74.04 145.14 74.04 145.14" id="akKnPAqMI"></path><path d="M74.04 145.14C74.15 145.79 73.49 146.45 72.54 146.63C71.61 146.8 70.74 146.4 70.62 145.76C70.51 145.1 71.18 144.43 72.12 144.26C73.07 144.1 73.92 144.48 74.04 145.14C74.04 145.14 74.04 145.14 74.04 145.14" id="eEuFQNY1s"></path></defs><g><g><g><use xlink:href="#c3f5yBCWcS" opacity="1" fill="#ffffff" fill-opacity="1"></use><g><use xlink:href="#c3f5yBCWcS" opacity="1" fill-opacity="0" stroke="#000000" stroke-width="1" stroke-opacity="0"></use></g></g><g><use xlink:href="#g6N4QgXFrD" opacity="1" fill="#ffffff" fill-opacity="1"></use><g><use xlink:href="#g6N4QgXFrD" opacity="1" fill-opacity="0" stroke="#000000" stroke-width="1" stroke-opacity="0"></use></g></g><g><use xlink:href="#a5rqnJgoRI" opacity="1" fill="#ffffff" fill-opacity="1"></use><g><use xlink:href="#a5rqnJgoRI" opacity="1" fill-opacity="0" stroke="#000000" stroke-width="1" stroke-opacity="0"></use></g></g><g><use xlink:href="#bniVPbddM" opacity="1" fill="#ffffff" fill-opacity="1"></use><g><use xlink:href="#bniVPbddM" opacity="1" fill-opacity="0" stroke="#000000" stroke-width="1" stroke-opacity="0"></use></g></g><g><use xlink:href="#b1vQ7DknX1" opacity="1" fill="#ffffff" fill-opacity="1"></use><g><use xlink:href="#b1vQ7DknX1" opacity="1" fill-opacity="0" stroke="#000000" stroke-width="1" stroke-opacity="0"></use></g></g><g><use xlink:href="#aOGKucqy" opacity="1" fill="#ffffff" fill-opacity="1"></use><g><use xlink:href="#aOGKucqy" opacity="1" fill-opacity="0" stroke="#000000" stroke-width="1" stroke-opacity="0"></use></g></g><g><use xlink:href="#a1t2QCtnZ" opacity="1" fill="#ffffff" fill-opacity="1"></use><g><use xlink:href="#a1t2QCtnZ" opacity="1" fill-opacity="0" stroke="#000000" stroke-width="1" stroke-opacity="0"></use></g></g><g><use xlink:href="#cgdfem2Rb" opacity="1" fill="#ffffff" fill-opacity="1"></use><g><use xlink:href="#cgdfem2Rb" opacity="1" fill-opacity="0" stroke="#000000" stroke-width="1" stroke-opacity="0"></use></g></g><g><use xlink:href="#b8QOsNxQM" opacity="1" fill="#ffffff" fill-opacity="1"></use><g><use xlink:href="#b8QOsNxQM" opacity="1" fill-opacity="0" stroke="#000000" stroke-width="1" stroke-opacity="0"></use></g></g><g><use xlink:href="#afTwUgWBB" opacity="1" fill="#ffffff" fill-opacity="1"></use><g><use xlink:href="#afTwUgWBB" opacity="1" fill-opacity="0" stroke="#000000" stroke-width="1" stroke-opacity="0"></use></g></g><g><use xlink:href="#d323eEJcBg" opacity="1" fill="#ffffff" fill-opacity="1"></use><g><use xlink:href="#d323eEJcBg" opacity="1" fill-opacity="0" stroke="#000000" stroke-width="1" stroke-opacity="0"></use></g></g><g><use xlink:href="#a2PS6RB0cu" opacity="1" fill="#ffffff" fill-opacity="1"></use><g><use xlink:href="#a2PS6RB0cu" opacity="1" fill-opacity="0" stroke="#000000" stroke-width="1" stroke-opacity="0"></use></g></g><g><use xlink:href="#hoT5rRVvi" opacity="1" fill="#ffffff" fill-opacity="1"></use><g><use xlink:href="#hoT5rRVvi" opacity="1" fill-opacity="0" stroke="#000000" stroke-width="1" stroke-opacity="0"></use></g></g><g><use xlink:href="#c4he8Idk8" opacity="1" fill="#ffffff" fill-opacity="1"></use><g><use xlink:href="#c4he8Idk8" opacity="1" fill-opacity="0" stroke="#000000" stroke-width="1" stroke-opacity="0"></use></g></g><g><use xlink:href="#akKnPAqMI" opacity="1" fill="#ffffff" fill-opacity="1"></use><g><use xlink:href="#akKnPAqMI" opacity="1" fill-opacity="0" stroke="#000000" stroke-width="1" stroke-opacity="0"></use></g></g><g><use xlink:href="#eEuFQNY1s" opacity="1" fill="#ffffff" fill-opacity="1"></use><g><use xlink:href="#eEuFQNY1s" opacity="1" fill-opacity="0" stroke="#000000" stroke-width="1" stroke-opacity="0"></use></g></g></g></g></svg>
