<?xml version="1.0" encoding="UTF-8" standalone="no"?>
<svg
   xmlns:dc="http://purl.org/dc/elements/1.1/"
   xmlns:cc="http://creativecommons.org/ns#"
   xmlns:rdf="http://www.w3.org/1999/02/22-rdf-syntax-ns#"
   xmlns:svg="http://www.w3.org/2000/svg"
   xmlns="http://www.w3.org/2000/svg"
   viewBox="0 0 206.88 192"
   height="192"
   width="206.88"
   xml:space="preserve"
   id="svg2"
   version="1.1"><metadata
     id="metadata8"><rdf:RDF><cc:Work
         rdf:about=""><dc:format>image/svg+xml</dc:format><dc:type
           rdf:resource="http://purl.org/dc/dcmitype/StillImage" /></cc:Work></rdf:RDF></metadata><defs
     id="defs6" /><g
     transform="matrix(1.3333333,0,0,-1.3333333,0,192)"
     id="g10"><g
       transform="scale(0.1)"
       id="g12"><path
         id="path14"
         style="fill:#ffffff;fill-opacity:1;fill-rule:nonzero;stroke:none"
         d="m 1227.06,212.93 h -213.44 v 334.187 c 0,79.731 -1.46,182.235 -110.983,182.235 -111.145,0 -128.164,-86.825 -128.164,-176.461 V 212.93 H 561.047 V 900.137 H 765.93 v -93.891 h 2.84 c 28.496,54.027 98.171,110.996 202.082,110.996 216.278,0 256.208,-142.336 256.208,-327.359 z M 320.344,994.082 c -68.457,0 -123.867,55.508 -123.867,123.868 0,68.3 55.41,123.8 123.867,123.8 68.277,0 123.765,-55.5 123.765,-123.8 0,-68.36 -55.488,-123.868 -123.765,-123.868 z M 427.09,212.93 H 213.496 V 900.137 H 427.09 Z M 1333.43,1440 H 106.289 C 47.6484,1440 0,1393.52 0,1336.21 V 103.91 C 0,46.5508 47.6484,0 106.289,0 H 1333.43 c 58.74,0 106.59,46.5508 106.59,103.91 v 1232.3 c 0,57.31 -47.85,103.79 -106.59,103.79" /><path
         id="path16"
         style="fill:#ffffff;fill-opacity:1;fill-rule:nonzero;stroke:none"
         d="m 1512.69,244.16 h -6.74 v 13.66 h 8.54 c 4.41,0 9.46,-0.718 9.46,-6.488 0,-6.641 -5.09,-7.172 -11.26,-7.172 z m 6.7,-4.051 c 6.81,0.84 10.37,4.582 10.37,10.891 0,7.691 -4.64,11.422 -14.2,11.422 h -15.4 v -40.434 h 5.79 v 17.602 h 7.15 l 0.16,-0.211 11.07,-17.391 h 6.2 l -11.91,18.024 0.77,0.097" /><path
         id="path18"
         style="fill:#ffffff;fill-opacity:1;fill-rule:nonzero;stroke:none"
         d="m 1513.35,208.93 c -18.32,0 -32.67,14.449 -32.67,33.242 0,18.738 14.35,33.199 32.67,33.199 18.3,0 32.65,-14.461 32.65,-33.199 0,-18.793 -14.35,-33.242 -32.65,-33.242 z m 0,71.468 c -21.47,0 -38.3,-16.808 -38.3,-38.226 0,-21.481 16.83,-38.242 38.3,-38.242 21.45,0 38.25,16.761 38.25,38.242 0,21.418 -16.8,38.226 -38.25,38.226" /></g></g></svg>